<?xml version="1.0" encoding="utf-8"?>
<!-- Generator: Adobe Illustrator 26.0.2, SVG Export Plug-In . SVG Version: 6.00 Build 0)  -->
<!DOCTYPE svg PUBLIC "-//W3C//DTD SVG 1.1//EN" "http://www.w3.org/Graphics/SVG/1.1/DTD/svg11.dtd" [
	<!ENTITY ns_extend "http://ns.adobe.com/Extensibility/1.0/">
	<!ENTITY ns_ai "http://ns.adobe.com/AdobeIllustrator/10.0/">
	<!ENTITY ns_graphs "http://ns.adobe.com/Graphs/1.0/">
	<!ENTITY ns_vars "http://ns.adobe.com/Variables/1.0/">
	<!ENTITY ns_imrep "http://ns.adobe.com/ImageReplacement/1.0/">
	<!ENTITY ns_sfw "http://ns.adobe.com/SaveForWeb/1.0/">
	<!ENTITY ns_custom "http://ns.adobe.com/GenericCustomNamespace/1.0/">
	<!ENTITY ns_adobe_xpath "http://ns.adobe.com/XPath/1.0/">
]>
<svg version="1.1" id="Layer_1" xmlns:x="&ns_extend;" xmlns:i="&ns_ai;" xmlns:graph="&ns_graphs;"
	 xmlns="http://www.w3.org/2000/svg" xmlns:xlink="http://www.w3.org/1999/xlink" x="0px" y="0px"
	 viewBox="0 0 246.24049 235.68048" style="enable-background:new 0 0 246.24049 235.68048;" xml:space="preserve">
<style type="text/css">
	.st0{fill:#FFCC00;}
	.st1{fill:#FFB600;}
	.st2{fill:#03152B;}
	.st3{fill:#02101E;}
</style>
<metadata>
	<sfw  xmlns="&ns_sfw;">
		<slices></slices>
		<sliceSourceBounds  bottomLeftOrigin="true" height="799.302" width="3643.6665" x="-101.58128" y="-471.91699">
			</sliceSourceBounds>
		<optimizationSettings>
			<targetSettings  fileFormat="PNG24Format" targetSettingsID="0">
				<PNG24Format  filtered="false" interlaced="false" matteColor="#FFFFFF" noMatteColor="false" transparency="true">
					</PNG24Format>
			</targetSettings>
		</optimizationSettings>
	</sfw>
</metadata>
<g>
	<path class="st0" d="M123.52668,32.6355v170.40939c-0.1349,0.00356-0.27325,0.00356-0.40815,0.00356
		c-47.05829,0-85.20648-38.14818-85.20648-85.20647s38.14819-85.20993,85.20648-85.20993
		C123.25343,32.63204,123.39178,32.63204,123.52668,32.6355z"/>
	<path class="st1" d="M208.32845,117.84197c0,46.92335-37.93025,84.98505-84.80177,85.20292V32.6355
		C170.39819,32.85345,208.32845,70.91862,208.32845,117.84197z"/>
	<g>
		<g>
			<path class="st2" d="M123.11841,55.71936v8.28404c-1.07571,0.00346-2.15836,0.03809-3.25137,0.10378
				c-13.4966,0.80941-25.04933,6.15685-34.64777,15.45086c-1.96812-1.94731-3.88087-3.83932-5.88705-5.82472
				c11.38325-11.05462,25.0355-17.22878,40.98103-17.9448C121.25405,55.74706,122.19142,55.72283,123.11841,55.71936z"/>
			<path class="st2" d="M123.11841,171.67538v8.28751c-14.76257,0.045-27.96864-4.89777-39.79807-14.46158v6.25708h-8.21488
				v-19.90942h19.85752v8.2218h-4.78018C99.96801,167.81529,110.95,171.71693,123.11841,171.67538z"/>
			<path class="st2" d="M70.77946,104.02444c-2.59023-0.89606-5.09724-1.76333-7.81893-2.70486
				c1.52598-3.9553,3.01892-7.82498,4.57838-11.86704c2.64039,1.13159,5.10652,2.1885,7.62299,3.26699
				C73.70327,96.48219,72.26958,100.18051,70.77946,104.02444z"/>
			<path class="st2" d="M62.53983,132.81908c2.76358-0.89461,5.28601-1.71115,7.8746-2.54912
				c1.37166,3.76715,2.73193,7.50301,4.1423,11.37648c-2.43633,0.99692-4.92824,2.01659-7.66449,3.13622
				C65.44017,140.79132,64.01113,136.8633,62.53983,132.81908z"/>
			<path class="st2" d="M69.3429,123.22267c-2.8156,0-5.46861,0-8.1538,0c0-4.14485,0-8.29445,0-12.53735
				c2.86736,0.13754,5.52301,0.26493,8.1538,0.39114C69.3429,115.1483,69.3429,119.12778,69.3429,123.22267z"/>
			<path class="st2" d="M123.11841,76.41743v82.84748h-0.08648c-22.81489-0.05539-41.37186-18.6815-41.33728-41.48251
				C81.73269,94.97437,100.32082,76.41396,123.11841,76.41743z"/>
		</g>
		<path class="st3" d="M171.11752,63.99994v19.8645h-19.84369v-8.2495h4.78365
			c-9.77829-7.76174-20.76721-11.65992-32.93907-11.61153v-8.28404c14.75911-0.04839,27.96863,4.87015,39.7946,14.4582v-6.17762
			H171.11752z"/>
		<path class="st3" d="M183.701,102.87106c-2.76369,0.89588-5.28868,1.71214-7.87247,2.54916
			c-1.37318-3.77016-2.73253-7.50579-4.14377-11.37627c2.43854-0.99958,4.93239-2.02002,7.66493-3.1407
			C180.79898,94.89136,182.22751,98.8207,183.701,102.87106z"/>
		<path class="st3" d="M164.54562,117.83078c0.0069,22.83217-18.61578,41.44452-41.42722,41.43413V76.41743h0.02421
			C145.96095,76.43119,164.5387,95.01591,164.54562,117.83078z"/>
		<path class="st3" d="M166.92879,161.92824c-11.40744,11.08232-25.06662,17.24956-41.01212,17.96548
			c-0.93737,0.04155-1.87128,0.0657-2.79826,0.06917v-8.28751c1.07917-0.00346,2.16873-0.03809,3.26866-0.10378
			c13.4966-0.81279,25.05278-6.1534,34.64084-15.45779C163.00641,158.06468,164.92264,159.95323,166.92879,161.92824z"/>
		<path class="st3" d="M183.28592,134.35046c-1.53575,3.97427-3.04037,7.86554-4.59341,11.87781
			c-2.69101-1.16216-5.15721-2.22751-7.61304-3.28595c1.46312-3.76671,2.88818-7.43309,4.38589-11.28635
			C178.01801,132.53801,180.52571,133.39928,183.28592,134.35046z"/>
		<path class="st3" d="M185.04996,112.45911v12.5385c-2.86742-0.13832-5.52385-0.26634-8.15263-0.39082v-12.14768H185.04996z"/>
		<g>
			<path class="st0" d="M148.57283,107.05127l-16.57541,2.65003l-7.23294-19.02449c-0.45193-1.08372-1.98724-1.08372-2.43918,0
				l-8.38172,21.86859c-6.94749,1.04894-12.02321,1.82423-12.33839,1.88264c-0.20457,0.03791-0.32873,0.13055-0.36115,0.15589
				c-0.12263,0.09588-0.19469,0.21558-0.23842,0.31288l-1.48911,3.57117c-0.2331,0.55902,0.23508,1.15782,0.83382,1.06646
				l11.4043-1.74011l-0.50149,1.20255l-12.33807,1.88258c-0.26797,0.04089-0.49523,0.21857-0.59956,0.46877l-1.48911,3.57117
				c-0.23311,0.55902,0.23507,1.15781,0.83382,1.06646l11.40398-1.74006l-6.52885,13.88596
				c-0.363,0.87044,0.2765,1.82999,1.21959,1.82999h6.38026c0.63812,0,1.21338-0.38452,1.45737-0.97418l3.213-7.76512
				l8.11618-19.38067c0.23151-0.55283,1.01476-0.55283,1.24627,0l7.72398,18.44415c0.18642,0.44513-0.14055,0.93652-0.62314,0.93652
				h-10.66268c-0.63813,0-1.21337,0.38451-1.45736,0.97415l-2.311,5.58492c-0.42969,1.03841,0.33356,2.18024,1.45735,2.18024
				h25.03966c0.94308,0,1.58258-0.95955,1.21959-1.82999l-8.26144-18.13l8.3531-1.39916
				c0.26338-0.04412,0.48563-0.2205,0.58839-0.46699l1.48575-3.56309c0.23442-0.5622-0.2402-1.1631-0.84142-1.06526
				l-11.51288,1.8736l-0.44148-1.05866l13.40872-2.17284c0.26506-0.04295,0.48912-0.21981,0.59247-0.46765l1.48648-3.56483
				C149.64616,107.55557,149.17336,106.95526,148.57283,107.05127z"/>
			<path class="st1" d="M148.56845,107.08856l-16.57542,2.65003l-7.23293-19.02448c-0.2281-0.54695-0.73213-0.81769-1.23358-0.81255
				c-0.00001,7.18779,0,14.37559,0,21.56339c0.25831-0.00519,0.51924,0.13264,0.63713,0.41414l7.72398,18.44415
				c0.18642,0.44513-0.14053,0.93652-0.62314,0.93652H120.6018c-0.63812,0-1.21337,0.38451-1.45736,0.97415l-2.311,5.5849
				c-0.42968,1.03842,0.33356,2.18025,1.45736,2.18025h25.03967c0.94308,0,1.58257-0.95956,1.21957-1.82999l-8.26144-18.13
				l8.3531-1.39916c0.2634-0.04412,0.48563-0.2205,0.58841-0.46699l1.48573-3.56309c0.23444-0.5622-0.2402-1.1631-0.84142-1.06526
				l-11.51286,1.8736l-0.4415-1.05866l13.40872-2.17284c0.26508-0.04296,0.48914-0.21982,0.59248-0.46766l1.48647-3.56483
				C149.64178,107.59286,149.16898,106.99255,148.56845,107.08856z"/>
		</g>
	</g>
</g>
</svg>
