<?xml version="1.0" encoding="utf-8"?>
<!-- Generator: Adobe Illustrator 26.0.2, SVG Export Plug-In . SVG Version: 6.00 Build 0)  -->
<!DOCTYPE svg PUBLIC "-//W3C//DTD SVG 1.1//EN" "http://www.w3.org/Graphics/SVG/1.1/DTD/svg11.dtd" [
	<!ENTITY ns_extend "http://ns.adobe.com/Extensibility/1.0/">
	<!ENTITY ns_ai "http://ns.adobe.com/AdobeIllustrator/10.0/">
	<!ENTITY ns_graphs "http://ns.adobe.com/Graphs/1.0/">
	<!ENTITY ns_vars "http://ns.adobe.com/Variables/1.0/">
	<!ENTITY ns_imrep "http://ns.adobe.com/ImageReplacement/1.0/">
	<!ENTITY ns_sfw "http://ns.adobe.com/SaveForWeb/1.0/">
	<!ENTITY ns_custom "http://ns.adobe.com/GenericCustomNamespace/1.0/">
	<!ENTITY ns_adobe_xpath "http://ns.adobe.com/XPath/1.0/">
]>
<svg version="1.1"
	 id="svg3367" xmlns:x="&ns_extend;" xmlns:i="&ns_ai;" xmlns:graph="&ns_graphs;" xmlns:inkscape="http://www.inkscape.org/namespaces/inkscape" xmlns:sodipodi="http://sodipodi.sourceforge.net/DTD/sodipodi-0.dtd" xmlns:svg="http://www.w3.org/2000/svg"
	 xmlns="http://www.w3.org/2000/svg" xmlns:xlink="http://www.w3.org/1999/xlink" x="0px" y="0px" viewBox="0 0 50 50"
	 style="enable-background:new 0 0 50 50;" xml:space="preserve">
<style type="text/css">
	.st0{fill:#FFCC00;}
	.st1{fill:#FFB600;}
</style>
<metadata>
	<sfw  xmlns="&ns_sfw;">
		<slices></slices>
		<sliceSourceBounds  bottomLeftOrigin="true" height="46.1" width="48.8" x="0.6" y="2"></sliceSourceBounds>
	</sfw>
</metadata>
<g>
	<path class="st0" d="M25.4,2v19.8c-0.2,0-0.5,0.1-0.7,0.3l-7.4,18l-3,7.1C14,47.8,13.6,48,13,48H7c-0.9,0-1.5-0.7-1.2-1.6L12,33.6
		L1.4,35.3c-0.4,0-1-0.6-0.7-1L2.1,31c0.1-0.3,0.3-0.4,0.6-0.4L14,28.9l0.4-1L3.9,29.5c-0.5,0-1-0.6-0.8-1l1.5-3.3
		C4.8,25,4.8,25,5,24.9c0,0,0.2-0.2,0.3-0.2c0.3-0.1,5.1-0.7,11.5-1.8l7.7-20.2C24.6,2.2,25,2,25.4,2z"/>
	<path class="st1" d="M49.4,18.9l-1.5,3.3c-0.1,0.3-0.3,0.4-0.6,0.4L35,24.6l0.5,1l10.8-2.1c0.4,0,1,0.6,0.8,1l-1.5,3.3
		c-0.2,0.3-0.3,0.3-0.6,0.4l-7.7,1.3l7.6,16.8c0.3,0.8-0.3,1.6-1.2,1.6H20.4c-1,0-1.8-0.9-1.3-1.9l2.2-5.2c0.3-0.6,0.7-0.9,1.3-0.9
		h9.8c0.5,0,0.8-0.5,0.6-0.9L25.9,22c-0.1-0.2-0.3-0.3-0.5-0.3V2c0.5-0.1,1,0.2,1.2,0.8l6.5,17.5l15.3-2.4
		C49.1,17.7,49.5,18.3,49.4,18.9z"/>
</g>
</svg>
